<svg width="100%" height="100%" viewBox="0 0 32 32" fill="none" xmlns="http://www.w3.org/2000/svg">
  <path d="M24.9982 11.9035L25.9645 9.19832C26.0866 8.83901 26.1267 8.45889 26.0809 8.08396C26.0351 7.70903 25.9047 7.34877 25.6996 7.03108C25.4944 6.71339 25.2198 6.44723 24.8967 6.25373C24.5736 6.06023 24.2107 5.94443 23.8359 5.91603L20.9336 5.71603L18.7359 3.31603C18.4848 3.04113 18.1736 2.82344 17.8267 2.67998C17.4798 2.53652 17.1055 2.47083 16.7291 2.48783C16.3526 2.50483 15.9858 2.60409 15.6531 2.77832C15.3204 2.95255 15.0301 3.19741 14.8045 3.49832L13.0359 5.91603L10.1336 6.11603C9.75881 6.14443 9.39591 6.26023 9.07281 6.45373C8.74971 6.64723 8.47508 6.91339 8.26994 7.23108C8.0648 7.54877 7.93444 7.90903 7.88863 8.28396C7.84282 8.65889 7.88293 9.03901 8.00496 9.39832L8.97129 12.1035L7.97129 14.8087C7.84926 15.168 7.80915 15.5481 7.85496 15.923C7.90077 16.298 8.03113 16.6582 8.23627 16.9759C8.44141 17.2936 8.71604 17.5598 9.03914 17.7533C9.36224 17.9468 9.72514 18.0626 10.0999 18.091L13.0022 18.291L15.1999 20.691C15.4511 20.9659 15.7622 21.1836 16.1091 21.3271C16.456 21.4705 16.8303 21.5362 17.2068 21.5192C17.5832 21.5022 17.95 21.403 18.2827 21.2287C18.6154 21.0545 18.9057 20.8096 19.1313 20.5087L20.8999 18.091L23.8022 17.891C24.177 17.8626 24.5399 17.7468 24.863 17.5533C25.1861 17.3598 25.4607 17.0936 25.6659 16.7759C25.871 16.4582 26.0014 16.098 26.0472 15.723C26.093 15.3481 26.0529 14.968 25.9309 14.6087L24.9982 11.9035Z" fill="#FF5000"/>
  <path d="M19.9982 13.9035C19.9982 14.4339 19.8929 14.9582 19.6898 15.4427C19.4867 15.9272 19.1901 16.3613 18.8196 16.7187C18.4491 17.0762 18.0131 17.3488 17.5375 17.5196C17.0619 17.6903 16.5574 17.7552 16.0576 17.7101C15.5578 17.665 15.0724 17.5108 14.6336 17.2576C14.1948 17.0044 13.8131 16.6578 13.5158 16.2404C13.2185 15.823 13.0127 15.3448 12.9133 14.8407C12.8139 14.3366 12.8231 13.8178 12.9404 13.3179C13.0576 12.818 13.2801 12.3471 13.5916 11.9399C13.9031 11.5327 14.2965 11.1993 14.7436 10.9613C15.1907 10.7233 15.6812 10.5861 16.1818 10.5586C16.6824 10.5312 17.1841 10.6141 17.6526 10.8022C18.1211 10.9903 18.5456 11.2795 18.8984 11.6507C19.2512 12.0219 19.5242 12.4667 19.6982 12.9535C19.8722 13.4403 19.9433 13.9587 19.9982 14.4891V13.9035Z" fill="white"/>
</svg>