<svg width="100%" height="100%" viewBox="0 0 512 512" fill="none" xmlns="http://www.w3.org/2000/svg">
  <rect width="512" height="512" rx="256" fill="#8697FF"/>
  <path d="M256 150C200 150 155 195 155 251C155 307 200 352 256 352C312 352 357 307 357 251C357 195 312 150 256 150ZM256 320C218 320 187 289 187 251C187 213 218 182 256 182C294 182 325 213 325 251C325 289 294 320 256 320Z" fill="white"/>
  <path d="M256 200C229 200 207 222 207 249C207 276 229 298 256 298C283 298 305 276 305 249C305 222 283 200 256 200ZM256 270C244 270 235 261 235 249C235 237 244 228 256 228C268 228 277 237 277 249C277 261 268 270 256 270Z" fill="white"/>
</svg>