<svg width="100%" height="100%" viewBox="0 0 512 512" fill="none" xmlns="http://www.w3.org/2000/svg">
  <rect width="512" height="512" rx="256" fill="white"/>
  <path d="M169.209 197.075C208.95 157.4 273.05 157.4 312.791 197.075L318.442 202.721C320.436 204.714 320.436 207.934 318.442 209.927L301.651 226.697C300.654 228.693 298.744 228.693 296.747 226.697L288.85 218.809C262.235 192.238 219.765 192.238 193.15 218.809L184.756 227.194C182.759 229.19 180.849 229.19 178.852 227.194L162.061 210.424C160.067 208.43 160.067 205.211 162.061 203.217L169.209 197.075ZM342.486 226.697L359.277 243.467C361.271 245.461 361.271 248.68 359.277 250.674L290.847 319.027C288.85 321.021 285.63 321.021 283.636 319.027L235.764 271.212C234.766 270.215 233.353 270.215 232.356 271.212L184.484 319.027C182.487 321.021 179.267 321.021 177.273 319.027L108.723 250.674C106.729 248.68 106.729 245.461 108.723 243.467L125.514 226.697C127.508 224.703 130.728 224.703 132.721 226.697L180.594 274.512C181.591 275.509 183.004 275.509 184.001 274.512L231.873 226.697C233.867 224.703 237.086 224.703 239.08 226.697L286.952 274.512C287.949 275.509 289.362 275.509 290.359 274.512L338.232 226.697C340.493 224.703 343.483 224.703 345.477 226.697H342.486Z" fill="#3B99FC"/>
</svg>